<svg width="94" height="94" viewBox="0 0 94 94" fill="none" xmlns="http://www.w3.org/2000/svg">
<rect x="0.45" y="0.45" width="93.1" height="93.1" rx="46.55" stroke="#DDE5E9" stroke-width="0.9"/>
<path d="M32.7841 60.2727H33.8409V66.0511C33.8409 66.6477 33.7003 67.1804 33.419 67.6491C33.1406 68.1151 32.7472 68.483 32.2386 68.7528C31.7301 69.0199 31.1335 69.1534 30.4489 69.1534C29.7642 69.1534 29.1676 69.0199 28.6591 68.7528C28.1506 68.483 27.7557 68.1151 27.4744 67.6491C27.196 67.1804 27.0568 66.6477 27.0568 66.0511V60.2727H28.1136V65.9659C28.1136 66.392 28.2074 66.7713 28.3949 67.1037C28.5824 67.4332 28.8494 67.6932 29.196 67.8835C29.5455 68.071 29.9631 68.1648 30.4489 68.1648C30.9347 68.1648 31.3523 68.071 31.7017 67.8835C32.0511 67.6932 32.3182 67.4332 32.5028 67.1037C32.6903 66.7713 32.7841 66.392 32.7841 65.9659V60.2727ZM35.815 71.4545V62.4545H36.7866V63.4943H36.9059C36.9798 63.3807 37.082 63.2358 37.2127 63.0597C37.3462 62.8807 37.5366 62.7216 37.7837 62.5824C38.0337 62.4403 38.3718 62.3693 38.7979 62.3693C39.3491 62.3693 39.8349 62.5071 40.2553 62.7827C40.6758 63.0582 41.0039 63.4489 41.2397 63.9545C41.4755 64.4602 41.5934 65.0568 41.5934 65.7443C41.5934 66.4375 41.4755 67.0384 41.2397 67.5469C41.0039 68.0526 40.6772 68.4446 40.2596 68.723C39.842 68.9986 39.3604 69.1364 38.815 69.1364C38.3945 69.1364 38.0579 69.0668 37.805 68.9276C37.5522 68.7855 37.3576 68.625 37.2212 68.446C37.0849 68.2642 36.9798 68.1136 36.9059 67.9943H36.8207V71.4545H35.815ZM36.8036 65.7273C36.8036 66.2216 36.8761 66.6577 37.021 67.0355C37.1658 67.4105 37.3775 67.7045 37.6559 67.9176C37.9343 68.1278 38.2752 68.233 38.6786 68.233C39.0991 68.233 39.4499 68.1222 39.7312 67.9006C40.0153 67.6761 40.2283 67.375 40.3704 66.9972C40.5153 66.6165 40.5877 66.1932 40.5877 65.7273C40.5877 65.267 40.5167 64.8523 40.3746 64.483C40.2354 64.1108 40.0238 63.8168 39.7397 63.6009C39.4585 63.3821 39.1048 63.2727 38.6786 63.2727C38.2695 63.2727 37.9258 63.3764 37.6474 63.5838C37.369 63.7884 37.1587 64.0753 37.0167 64.4446C36.8746 64.8111 36.8036 65.2386 36.8036 65.7273ZM44.1332 60.2727V69H43.1275V60.2727H44.1332ZM48.6342 69.1364C48.0433 69.1364 47.5249 68.9957 47.0788 68.7145C46.6357 68.4332 46.2891 68.0398 46.0391 67.5341C45.7919 67.0284 45.6683 66.4375 45.6683 65.7614C45.6683 65.0795 45.7919 64.4844 46.0391 63.9759C46.2891 63.4673 46.6357 63.0724 47.0788 62.7912C47.5249 62.5099 48.0433 62.3693 48.6342 62.3693C49.2251 62.3693 49.7422 62.5099 50.1854 62.7912C50.6314 63.0724 50.978 63.4673 51.2251 63.9759C51.4751 64.4844 51.6001 65.0795 51.6001 65.7614C51.6001 66.4375 51.4751 67.0284 51.2251 67.5341C50.978 68.0398 50.6314 68.4332 50.1854 68.7145C49.7422 68.9957 49.2251 69.1364 48.6342 69.1364ZM48.6342 68.233C49.0831 68.233 49.4524 68.1179 49.7422 67.8878C50.032 67.6577 50.2464 67.3551 50.3857 66.9801C50.5249 66.6051 50.5945 66.1989 50.5945 65.7614C50.5945 65.3239 50.5249 64.9162 50.3857 64.5384C50.2464 64.1605 50.032 63.8551 49.7422 63.6222C49.4524 63.3892 49.0831 63.2727 48.6342 63.2727C48.1854 63.2727 47.8161 63.3892 47.5263 63.6222C47.2365 63.8551 47.022 64.1605 46.8828 64.5384C46.7436 64.9162 46.674 65.3239 46.674 65.7614C46.674 66.1989 46.7436 66.6051 46.8828 66.9801C47.022 67.3551 47.2365 67.6577 47.5263 67.8878C47.8161 68.1179 48.1854 68.233 48.6342 68.233ZM55.0614 69.1534C54.6467 69.1534 54.2702 69.0753 53.9322 68.919C53.5941 68.7599 53.3256 68.5312 53.1268 68.233C52.9279 67.9318 52.8285 67.5682 52.8285 67.142C52.8285 66.767 52.9023 66.4631 53.0501 66.2301C53.1978 65.9943 53.3952 65.8097 53.6424 65.6761C53.8896 65.5426 54.1623 65.4432 54.4606 65.3778C54.7617 65.3097 55.0643 65.2557 55.3683 65.2159C55.766 65.1648 56.0884 65.1264 56.3356 65.1009C56.5856 65.0724 56.7674 65.0256 56.881 64.9602C56.9975 64.8949 57.0558 64.7812 57.0558 64.6193V64.5852C57.0558 64.1648 56.9407 63.8381 56.7106 63.6051C56.4833 63.3722 56.1381 63.2557 55.6751 63.2557C55.195 63.2557 54.8185 63.3608 54.5458 63.571C54.2731 63.7812 54.0813 64.0057 53.9705 64.2443L53.016 63.9034C53.1864 63.5057 53.4137 63.196 53.6978 62.9744C53.9847 62.75 54.2972 62.5937 54.6353 62.5057C54.9762 62.4148 55.3114 62.3693 55.641 62.3693C55.8512 62.3693 56.0927 62.3949 56.3654 62.446C56.641 62.4943 56.9066 62.5952 57.1623 62.7486C57.4208 62.902 57.6353 63.1335 57.8058 63.4432C57.9762 63.7528 58.0614 64.1676 58.0614 64.6875V69H57.0558V68.1136H57.0046C56.9364 68.2557 56.8228 68.4077 56.6637 68.5696C56.5046 68.7315 56.293 68.8693 56.0288 68.983C55.7646 69.0966 55.4421 69.1534 55.0614 69.1534ZM55.2148 68.25C55.6126 68.25 55.9478 68.1719 56.2205 68.0156C56.4961 67.8594 56.7035 67.6577 56.8427 67.4105C56.9847 67.1634 57.0558 66.9034 57.0558 66.6307V65.7102C57.0131 65.7614 56.9194 65.8082 56.7745 65.8509C56.6325 65.8906 56.4677 65.9261 56.2802 65.9574C56.0955 65.9858 55.9151 66.0114 55.739 66.0341C55.5657 66.054 55.4251 66.071 55.3171 66.0852C55.0558 66.1193 54.8114 66.1747 54.5842 66.2514C54.3597 66.3253 54.1779 66.4375 54.0387 66.5881C53.9023 66.7358 53.8342 66.9375 53.8342 67.1932C53.8342 67.5426 53.9634 67.8068 54.2219 67.9858C54.4833 68.1619 54.8143 68.25 55.2148 68.25ZM62.3686 69.1364C61.8232 69.1364 61.3416 68.9986 60.924 68.723C60.5064 68.4446 60.1797 68.0526 59.9439 67.5469C59.7081 67.0384 59.5902 66.4375 59.5902 65.7443C59.5902 65.0568 59.7081 64.4602 59.9439 63.9545C60.1797 63.4489 60.5078 63.0582 60.9283 62.7827C61.3487 62.5071 61.8345 62.3693 62.3857 62.3693C62.8118 62.3693 63.1484 62.4403 63.3956 62.5824C63.6456 62.7216 63.8359 62.8807 63.9666 63.0597C64.1001 63.2358 64.2038 63.3807 64.2777 63.4943H64.3629V60.2727H65.3686V69H64.397V67.9943H64.2777C64.2038 68.1136 64.0987 68.2642 63.9624 68.446C63.826 68.625 63.6314 68.7855 63.3786 68.9276C63.1257 69.0668 62.7891 69.1364 62.3686 69.1364ZM62.505 68.233C62.9084 68.233 63.2493 68.1278 63.5277 67.9176C63.8061 67.7045 64.0178 67.4105 64.1626 67.0355C64.3075 66.6577 64.38 66.2216 64.38 65.7273C64.38 65.2386 64.3089 64.8111 64.1669 64.4446C64.0249 64.0753 63.8146 63.7884 63.5362 63.5838C63.2578 63.3764 62.9141 63.2727 62.505 63.2727C62.0788 63.2727 61.7237 63.3821 61.4396 63.6009C61.1584 63.8168 60.9467 64.1108 60.8047 64.483C60.6655 64.8523 60.5959 65.267 60.5959 65.7273C60.5959 66.1932 60.6669 66.6165 60.8089 66.9972C60.9538 67.375 61.1669 67.6761 61.4482 67.9006C61.7322 68.1222 62.0845 68.233 62.505 68.233Z" fill="#828282"/>
<path d="M44 45H50C55 45 57 43 57 38V32C57 27 55 25 50 25H44C39 25 37 27 37 32V38C37 43 39 45 44 45Z" stroke="#616161" stroke-width="1.5" stroke-linecap="round" stroke-linejoin="round"/>
<path d="M44 33C45.1046 33 46 32.1046 46 31C46 29.8954 45.1046 29 44 29C42.8954 29 42 29.8954 42 31C42 32.1046 42.8954 33 44 33Z" stroke="#616161" stroke-width="1.5" stroke-linecap="round" stroke-linejoin="round"/>
<path d="M37.6699 41.9501L42.5999 38.6401C43.3899 38.1101 44.5299 38.1701 45.2399 38.7801L45.5699 39.0701C46.3499 39.7401 47.6099 39.7401 48.3899 39.0701L52.5499 35.5001C53.3299 34.8301 54.5899 34.8301 55.3699 35.5001L56.9999 36.9001" stroke="#616161" stroke-width="1.5" stroke-linecap="round" stroke-linejoin="round"/>
</svg>
